name analog
datacolumns 19
datarows 18
range 0.0 0.0085
endheader
time	ground_force_vx	ground_force_vy	ground_force_vz	ground_force_px	ground_force_py	ground_force_pz	l_ground_force_vx	l_ground_force_vy	l_ground_force_vz	l_ground_force_px	l_ground_force_py	l_ground_force_pz	ground_torque_x	ground_torque_y	ground_torque_z	l_ground_torque_x	l_ground_torque_y	l_ground_torque_z
0.0	-0.0	-0.0	-0.0	3.096077442169189	14.465392112731934	-280.32080078125	-4.662040710449219	-21.8293571472168	-341.066162109375	-0.0	-0.0	-0.0	-0.0	-0.0	-0.0	121967.46875	5638.38623046875	-4339.81005859375
0.0005	-0.0	-0.0	-0.0	3.264304876327514	14.198073387145996	-280.38482666015625	-4.132177829742432	-22.01772689819336	-342.30426025390625	-0.0	-0.0	-0.0	-0.0	-0.0	-0.0	122600.359375	5583.74462890625	-4398.8095703125
0.001	-0.0	-0.0	-0.0	2.7655258178710938	13.910722732543944	-279.40496826171875	-4.547001838684082	-22.44503402709961	-344.6126708984375	-0.0	-0.0	-0.0	-0.0	-0.0	-0.0	123089.796875	5561.34375	-4344.7001953125
0.0015	-0.0	-0.0	-0.0	2.924255847930908	14.082603454589844	-277.9916076660156	-4.561296463012695	-22.772441864013672	-343.8702087402344	-0.0	-0.0	-0.0	-0.0	-0.0	-0.0	123805.9921875	5550.708984375	-4336.22802734375
0.002	-0.0	-0.0	-0.0	2.6666884422302246	14.039213180541992	-276.14862060546875	-4.550154685974121	-23.166072845458984	-347.7550048828125	-0.0	-0.0	-0.0	-0.0	-0.0	-0.0	124281.65625	5445.45751953125	-4254.75537109375
0.0025	-0.0	-0.0	-0.0	2.5149447917938232	14.05606174468994	-275.0895080566406	-4.535135746002197	-22.83864974975586	-349.0066833496094	-0.0	-0.0	-0.0	-0.0	-0.0	-0.0	124605.671875	5439.4189453125	-4395.66357421875
0.003	-0.0	-0.0	-0.0	2.5338287353515625	13.958820343017578	-273.0448913574219	-4.554941177368164	-23.769155502319336	-351.6376647949219	-0.0	-0.0	-0.0	-0.0	-0.0	-0.0	125470.671875	5237.40087890625	-4394.42333984375
0.0035	-0.0	-0.0	-0.0	2.158609628677368	14.082603454589844	-271.1003723144531	-4.6495361328125	-24.111820220947266	-351.2052001953125	-0.0	-0.0	-0.0	-0.0	-0.0	-0.0	126033.2109375	5440.62451171875	-4331.6640625
0.004	-0.0	-0.0	-0.0	2.239285469055176	13.958091735839844	-269.6178283691406	-4.47204065322876	-24.35079574584961	-354.63531494140625	-0.0	-0.0	-0.0	-0.0	-0.0	-0.0	126542.015625	5369.15380859375	-4286.240234375
0.0045000000000000005	-0.0	-0.0	-0.0	2.230652332305908	13.654932975769045	-267.28594970703125	-4.471895694732666	-24.579490661621094	-355.84844970703125	-0.0	-0.0	-0.0	-0.0	-0.0	-0.0	127215.8046875	5335.13818359375	-4378.791015625
0.005	-0.0	-0.0	-0.0	1.9365671873092647	14.020289421081545	-265.87261962890625	-4.044416427612305	-25.109458923339844	-357.4280700683594	-0.0	-0.0	-0.0	-0.0	-0.0	-0.0	127669.40625	5160.81982421875	-4298.40869140625
0.0055	-0.0	-0.0	-0.0	1.6057891845703125	13.27191162109375	-262.6983642578125	-4.4256367683410645	-25.348323822021484	-359.8074951171875	-0.0	-0.0	-0.0	-0.0	-0.0	-0.0	128530.3359375	5011.01318359375	-4171.3359375
0.006	-0.0	-0.0	-0.0	1.5974819660186768	13.850455284118652	-262.8726501464844	-4.435539245605469	-26.057598114013672	-361.6174011230469	-0.0	-0.0	-0.0	-0.0	-0.0	-0.0	128734.6640625	4953.0380859375	-4281.39501953125
0.006500000000000001	-0.0	-0.0	-0.0	1.6327941417694092	13.34257984161377	-259.4803466796875	-4.143028259277344	-26.179014205932617	-364.306640625	-0.0	-0.0	-0.0	-0.0	-0.0	-0.0	129225.0703125	4644.58349609375	-4132.8974609375
0.007	-0.0	-0.0	-0.0	1.6519676446914673	13.36956024169922	-259.0953063964844	-4.142955780029297	-26.355512619018555	-363.6077575683594	-0.0	-0.0	-0.0	-0.0	-0.0	-0.0	129789.21875	4982.42431640625	-4088.17529296875
0.0075	-0.0	-0.0	-0.0	1.9626312255859373	13.47018814086914	-257.4991149902344	-3.548431396484375	-26.902570724487305	-366.19189453125	-0.0	-0.0	-0.0	-0.0	-0.0	-0.0	130488.328125	4753.828125	-3966.611572265625
0.008	-0.0	-0.0	-0.0	1.4273681640625	13.253283500671388	-256.02496337890625	-3.841107130050659	-27.256628036499023	-366.6091918945313	-0.0	-0.0	-0.0	-0.0	-0.0	-0.0	130838.1953125	4703.0615234375	-3940.0234375
0.0085	-0.0	-0.0	-0.0	2.1955387592315674	12.819829940795898	-255.5162048339844	-3.938753843307495	-27.512191772460938	-368.3898315429688	-0.0	-0.0	-0.0	-0.0	-0.0	-0.0	131586.234375	4610.99072265625	-3990.70703125
